<?xml version="1.0" encoding="UTF-8" standalone="no"?>
<!-- Generator: Adobe Illustrator 16.0.0, SVG Export Plug-In . SVG Version: 6.00 Build 0)  -->

<svg
   xmlns:dc="http://purl.org/dc/elements/1.1/"
   xmlns:cc="http://creativecommons.org/ns#"
   xmlns:rdf="http://www.w3.org/1999/02/22-rdf-syntax-ns#"
   xmlns:svg="http://www.w3.org/2000/svg"
   xmlns="http://www.w3.org/2000/svg"
   xmlns:xlink="http://www.w3.org/1999/xlink"
   xmlns:sodipodi="http://sodipodi.sourceforge.net/DTD/sodipodi-0.dtd"
   xmlns:inkscape="http://www.inkscape.org/namespaces/inkscape"
   version="1.1"
   id="圖層_1"
   x="0px"
   y="0px"
   width="200"
   height="204.39677"
   viewBox="0 0 200 204.39678"
   enable-background="new 0 0 595.276 822.047"
   xml:space="preserve"
   inkscape:version="0.48.4 r9939"
   sodipodi:docname="林務局.svg"><metadata
   id="metadata57"><rdf:RDF><cc:Work
       rdf:about=""><dc:format>image/svg+xml</dc:format><dc:type
         rdf:resource="http://purl.org/dc/dcmitype/StillImage" /></cc:Work></rdf:RDF></metadata><defs
   id="defs55">
	<defs
   id="defs5">
		<rect
   height="822.047"
   width="595.276"
   id="SVGID_1_"
   x="0"
   y="0" />
	</defs>
	<clipPath
   id="SVGID_2_">
		<use
   id="use9"
   overflow="visible"
   xlink:href="#SVGID_1_"
   style="overflow:visible"
   x="0"
   y="0"
   width="595.276"
   height="822.047" />
	</clipPath>
	
	
	
	
	
	
</defs><sodipodi:namedview
   pagecolor="#ffffff"
   bordercolor="#666666"
   borderopacity="1"
   objecttolerance="10"
   gridtolerance="10"
   guidetolerance="10"
   inkscape:pageopacity="0"
   inkscape:pageshadow="2"
   inkscape:window-width="1440"
   inkscape:window-height="747"
   id="namedview53"
   showgrid="false"
   fit-margin-top="0"
   fit-margin-left="0"
   fit-margin-right="0"
   fit-margin-bottom="0"
   inkscape:zoom="1.1483528"
   inkscape:cx="92.911495"
   inkscape:cy="63.258786"
   inkscape:window-x="-8"
   inkscape:window-y="-8"
   inkscape:window-maximized="1"
   inkscape:current-layer="圖層_1" />
<g
   id="g3062"
   transform="translate(-204.72651,-583.37801)"><g
     transform="matrix(13.976037,0,0,13.976037,-2656.5372,-10222.195)"
     clip-path="url(#SVGID_2_)"
     id="g19">
		<defs
   id="defs21">
			<rect
   id="SVGID_3_"
   width="595.276"
   height="822.047"
   x="0"
   y="0" />
		</defs>
		<clipPath
   id="SVGID_4_">
			<use
   xlink:href="#SVGID_3_"
   overflow="visible"
   id="use25"
   style="overflow:visible"
   x="0"
   y="0"
   width="595.276"
   height="822.047" />
		</clipPath>
		<path
   clip-path="url(#SVGID_4_)"
   d="m 219.036,786.069 c -3.886,2.262 -9.583,2.153 -13.658,0.387 l -0.65,-0.325 c -0.072,-5.335 2.282,-10.322 7.078,-12.981 4.814,2.624 7.275,7.591 7.23,12.919"
   id="path27"
   inkscape:connector-curvature="0"
   style="fill:#aa8420" />
	</g><polygon
     transform="matrix(13.976037,0,0,13.976037,-2656.5372,-10222.195)"
     clip-path="url(#SVGID_2_)"
     points="208.641,783.661 214.996,783.661 211.796,777.643 "
     id="polygon29"
     style="fill:#00a040" /><g
     transform="matrix(13.976037,0,0,13.976037,-2656.5372,-10222.195)"
     clip-path="url(#SVGID_2_)"
     id="g31">
		<defs
   id="defs33">
			<rect
   id="SVGID_5_"
   width="595.276"
   height="822.047"
   x="0"
   y="0" />
		</defs>
		<clipPath
   id="SVGID_6_">
			<use
   xlink:href="#SVGID_5_"
   overflow="visible"
   id="use37"
   style="overflow:visible"
   x="0"
   y="0"
   width="595.276"
   height="822.047" />
		</clipPath>
		<path
   clip-path="url(#SVGID_6_)"
   d="m 213.663,775.114 c 0.288,3.317 1.551,6.492 4.4,8.547 h -3.178 c -2.254,-2.045 -3.052,-4.851 -3.295,-7.762 v -0.759 c 1.274,0.017 1.415,-0.014 2.073,-0.026"
   id="path39"
   inkscape:connector-curvature="0"
   style="fill:#ffffff" />
		<path
   clip-path="url(#SVGID_6_)"
   d="m 211.796,777.712 c -0.288,2.281 -1.325,4.272 -3.065,5.932 h -3.111 c 2.083,-1.469 3.238,-3.678 3.832,-5.932 1.247,0.037 1.55,-0.019 2.344,0"
   id="path41"
   inkscape:connector-curvature="0"
   style="fill:#ffffff" />
	</g><rect
     transform="matrix(13.976037,0,0,13.976037,-2656.5372,-10222.195)"
     x="210.377"
     y="783.66101"
     clip-path="url(#SVGID_2_)"
     width="2.8169999"
     height="3.201"
     id="rect43"
     style="fill:#ffffff" /></g><g
   id="g45"
   clip-path="url(#SVGID_2_)"
   transform="translate(-204.72651,-583.37801)">
		<defs
   id="defs47">
			<rect
   y="0"
   x="0"
   height="822.047"
   width="595.276"
   id="SVGID_7_" />
		</defs>
		<clipPath
   id="SVGID_8_">
			<use
   height="822.047"
   width="595.276"
   y="0"
   x="0"
   style="overflow:visible"
   id="use51"
   overflow="visible"
   xlink:href="#SVGID_7_" />
		</clipPath>
	</g>
</svg>